HIERARCHY
ROOT hip
{
	OFFSET 0.000000 103.560692 0.219151
	CHANNELS 6 Xposition Yposition Zposition Zrotation Xrotation Yrotation
	JOINT pelvis
	{
		OFFSET 0.000000 1.955040 1.591925
		CHANNELS 3 Zrotation Xrotation Yrotation
		JOINT lThigh
		{
			OFFSET 8.341582 -7.629402 -0.646910
			CHANNELS 3 Zrotation Xrotation Yrotation
			JOINT lShin
			{
				OFFSET 2.185763 -45.093132 -0.705710
				CHANNELS 3 Zrotation Xrotation Yrotation
				JOINT lFoot
				{
					OFFSET 0.730976 -46.379768 -2.264282
					CHANNELS 3 Zrotation Xrotation Yrotation
					JOINT lToe
					{
						OFFSET 2.797621 -4.200020 10.742415
						CHANNELS 3 Zrotation Xrotation Yrotation
						JOINT lBigToe
						{
							OFFSET -2.433708 -0.269072 1.841711
							CHANNELS 3 Zrotation Xrotation Yrotation
							End Site
							{
								OFFSET -10.527346 -33.657166 -1.340707
							}
						}
					}
				}
			}
		}
		JOINT rThigh
		{
			OFFSET -8.341582 -7.629402 -0.646910
			CHANNELS 3 Zrotation Xrotation Yrotation
			JOINT rShin
			{
				OFFSET -2.185763 -45.093132 -0.705710
				CHANNELS 3 Zrotation Xrotation Yrotation
				JOINT rFoot
				{
					OFFSET -0.730976 -46.379768 -2.264282
					CHANNELS 3 Zrotation Xrotation Yrotation
					JOINT rToe
					{
						OFFSET -2.797621 -4.200019 10.742415
						CHANNELS 3 Zrotation Xrotation Yrotation
						JOINT rBigToe
						{
							OFFSET 2.433708 -0.269072 1.841711
							CHANNELS 3 Zrotation Xrotation Yrotation
							End Site
							{
								OFFSET 0.000000 24.298409 -0.425647
							}
						}
					}
				}
			}
		}
	}
	JOINT abdomen
	{
		OFFSET 0.000000 1.841293 -3.551421
		CHANNELS 3 Zrotation Xrotation Yrotation
		JOINT abdomen2
		{
			OFFSET 0.000000 5.439911 3.419600
			CHANNELS 3 Zrotation Xrotation Yrotation
			JOINT chest
			{
				OFFSET 0.000000 14.715073 -2.918270
				CHANNELS 3 Zrotation Xrotation Yrotation
				JOINT neck
				{
					OFFSET 0.000000 26.294655 -1.248052
					CHANNELS 3 Zrotation Xrotation Yrotation
					JOINT head
					{
						OFFSET 0.000000 8.807068 1.063695
						CHANNELS 3 Zrotation Xrotation Yrotation
						JOINT rEye
						{
							OFFSET -3.030866 6.632080 7.702687
							CHANNELS 3 Zrotation Xrotation Yrotation
							End Site
							{
								OFFSET 2.969555 -11.022598 8.626689
							}
						}
						JOINT lEye
						{
							OFFSET 3.030866 6.632080 7.702687
							CHANNELS 3 Zrotation Xrotation Yrotation
							End Site
							{
								OFFSET 0.000000 -15.881760 10.104412
							}
						}
						JOINT upperJaw
						{
							OFFSET 0.000000 1.922699 2.891887
							CHANNELS 3 Zrotation Xrotation Yrotation
							End Site
							{
								OFFSET 0.000000 -19.386169 10.230839
							}
						}
						JOINT lowerJaw
						{
							OFFSET 0.000000 1.857620 2.686640
							CHANNELS 3 Zrotation Xrotation Yrotation
							JOINT tongueBase
							{
								OFFSET 0.000000 -3.019135 2.746916
								CHANNELS 3 Zrotation Xrotation Yrotation
								JOINT tongue01
								{
									OFFSET 0.000000 0.664124 0.223355
									CHANNELS 3 Zrotation Xrotation Yrotation
									JOINT tongue02
									{
										OFFSET 0.000000 0.339737 0.715627
										CHANNELS 3 Zrotation Xrotation Yrotation
										JOINT tongue03
										{
											OFFSET 0.000000 0.123444 0.730634
											CHANNELS 3 Zrotation Xrotation Yrotation
											JOINT tongue04
											{
												OFFSET 0.000000 0.017212 0.737415
												CHANNELS 3 Zrotation Xrotation Yrotation
												JOINT tongue05
												{
													OFFSET 0.000000 -0.021011 0.632440
													CHANNELS 3 Zrotation Xrotation Yrotation
													JOINT tongueTip
													{
														OFFSET 0.000000 -0.014404 0.601796
														CHANNELS 3 Zrotation Xrotation Yrotation
														End Site
														{
															OFFSET -14.139406 -2.625778 0.472826
														}
													}
												}
											}
										}
									}
								}
							}
						}
					}
				}
				JOINT rCollar
				{
					OFFSET -2.109295 21.452370 3.768136
					CHANNELS 3 Zrotation Xrotation Yrotation
					JOINT rShldr
					{
						OFFSET -11.491621 -2.568573 -4.940255
						CHANNELS 3 Zrotation Xrotation Yrotation
						JOINT rForeArm
						{
							OFFSET -28.789030 -0.213806 2.098380
							CHANNELS 3 Zrotation Xrotation Yrotation
							JOINT rHand
							{
								OFFSET -22.260895 -0.869583 10.391586
								CHANNELS 3 Zrotation Xrotation Yrotation
								JOINT rThumb1
								{
									OFFSET -0.628075 0.137405 2.362409
									CHANNELS 3 Zrotation Xrotation Yrotation
									JOINT rThumb2
									{
										OFFSET 0.085205 -0.600235 3.826079
										CHANNELS 3 Zrotation Xrotation Yrotation
										JOINT rThumb3
										{
											OFFSET -1.255478 -0.879211 2.439162
											CHANNELS 3 Zrotation Xrotation Yrotation
											End Site
											{
												OFFSET -2.963715 0.538574 4.059553
											}
										}
									}
								}
								JOINT rCarpal1
								{
									OFFSET -0.855530 1.026047 1.621985
									CHANNELS 3 Zrotation Xrotation Yrotation
									JOINT rIndex1
									{
										OFFSET -3.951324 0.390884 3.873290
										CHANNELS 3 Zrotation Xrotation Yrotation
										JOINT rIndex2
										{
											OFFSET -3.071884 -1.259598 2.506104
											CHANNELS 3 Zrotation Xrotation Yrotation
											JOINT rIndex3
											{
												OFFSET -1.394112 -1.446640 1.203302
												CHANNELS 3 Zrotation Xrotation Yrotation
												End Site
												{
													OFFSET -3.392448 -1.258026 0.533405
												}
											}
										}
									}
									JOINT rMid1
									{
										OFFSET -5.422974 0.107910 2.002650
										CHANNELS 3 Zrotation Xrotation Yrotation
										JOINT rMid2
										{
											OFFSET -3.599533 -1.323776 2.090647
											CHANNELS 3 Zrotation Xrotation Yrotation
											JOINT rMid3
											{
												OFFSET -1.360191 -1.598495 1.068055
												CHANNELS 3 Zrotation Xrotation Yrotation
												End Site
												{
													OFFSET -4.087769 -0.460876 0.069540
												}
											}
										}
									}
								}
								JOINT rCarpal2
								{
									OFFSET -1.942749 0.556229 -0.337217
									CHANNELS 3 Zrotation Xrotation Yrotation
									JOINT rRing1
									{
										OFFSET -4.762787 -0.121170 2.349089
										CHANNELS 3 Zrotation Xrotation Yrotation
										JOINT rRing2
										{
											OFFSET -3.380348 -1.337097 1.356700
											CHANNELS 3 Zrotation Xrotation Yrotation
											JOINT rRing3
											{
												OFFSET -1.430290 -1.499649 0.914224
												CHANNELS 3 Zrotation Xrotation Yrotation
												End Site
												{
													OFFSET -1.783272 -2.215851 -0.391895
												}
											}
										}
									}
									JOINT rPinky1
									{
										OFFSET -5.232559 -1.313721 0.336493
										CHANNELS 3 Zrotation Xrotation Yrotation
										JOINT rPinky2
										{
											OFFSET -2.217606 -1.389603 0.800693
											CHANNELS 3 Zrotation Xrotation Yrotation
											JOINT rPinky3
											{
												OFFSET -0.886887 -1.462280 0.774199
												CHANNELS 3 Zrotation Xrotation Yrotation
												End Site
												{
													OFFSET 14.139406 -2.625778 0.472826
												}
											}
										}
									}
								}
							}
						}
					}
				}
				JOINT lCollar
				{
					OFFSET 2.109295 21.452370 3.768136
					CHANNELS 3 Zrotation Xrotation Yrotation
					JOINT lShldr
					{
						OFFSET 11.491621 -2.568573 -4.940255
						CHANNELS 3 Zrotation Xrotation Yrotation
						JOINT lForeArm
						{
							OFFSET 28.789030 -0.213806 2.098380
							CHANNELS 3 Zrotation Xrotation Yrotation
							JOINT lHand
							{
								OFFSET 22.260895 -0.869583 10.391586
								CHANNELS 3 Zrotation Xrotation Yrotation
								JOINT lThumb1
								{
									OFFSET 0.628075 0.137405 2.362409
									CHANNELS 3 Zrotation Xrotation Yrotation
									JOINT lThumb2
									{
										OFFSET -0.085205 -0.600235 3.826079
										CHANNELS 3 Zrotation Xrotation Yrotation
										JOINT lThumb3
										{
											OFFSET 1.255478 -0.879211 2.439162
											CHANNELS 3 Zrotation Xrotation Yrotation
											End Site
											{
												OFFSET 2.963715 0.538574 4.059553
											}
										}
									}
								}
								JOINT lCarpal1
								{
									OFFSET 0.855530 1.026047 1.621985
									CHANNELS 3 Zrotation Xrotation Yrotation
									JOINT lIndex1
									{
										OFFSET 3.951324 0.390884 3.873290
										CHANNELS 3 Zrotation Xrotation Yrotation
										JOINT lIndex2
										{
											OFFSET 3.071884 -1.259598 2.506104
											CHANNELS 3 Zrotation Xrotation Yrotation
											JOINT lIndex3
											{
												OFFSET 1.394112 -1.446640 1.203302
												CHANNELS 3 Zrotation Xrotation Yrotation
												End Site
												{
													OFFSET 3.392448 -1.258026 0.533405
												}
											}
										}
									}
									JOINT lMid1
									{
										OFFSET 5.422974 0.107910 2.002650
										CHANNELS 3 Zrotation Xrotation Yrotation
										JOINT lMid2
										{
											OFFSET 3.599533 -1.323776 2.090647
											CHANNELS 3 Zrotation Xrotation Yrotation
											JOINT lMid3
											{
												OFFSET 1.360191 -1.598495 1.068055
												CHANNELS 3 Zrotation Xrotation Yrotation
												End Site
												{
													OFFSET 4.087769 -0.460876 0.069540
												}
											}
										}
									}
								}
								JOINT lCarpal2
								{
									OFFSET 1.942749 0.556229 -0.337217
									CHANNELS 3 Zrotation Xrotation Yrotation
									JOINT lRing1
									{
										OFFSET 4.762787 -0.121170 2.349089
										CHANNELS 3 Zrotation Xrotation Yrotation
										JOINT lRing2
										{
											OFFSET 3.380348 -1.337097 1.356700
											CHANNELS 3 Zrotation Xrotation Yrotation
											JOINT lRing3
											{
												OFFSET 1.430290 -1.499649 0.914224
												CHANNELS 3 Zrotation Xrotation Yrotation
												End Site
												{
													OFFSET 1.783272 -2.215851 -0.391895
												}
											}
										}
									}
									JOINT lPinky1
									{
										OFFSET 5.232559 -1.313721 0.336493
										CHANNELS 3 Zrotation Xrotation Yrotation
										JOINT lPinky2
										{
											OFFSET 2.217606 -1.389603 0.800693
											CHANNELS 3 Zrotation Xrotation Yrotation
											JOINT lPinky3
											{
												OFFSET 0.886887 -1.462280 0.774199
												CHANNELS 3 Zrotation Xrotation Yrotation
												End Site
												{
													OFFSET -10.295957 -17.050110 17.461308
												}
											}
										}
									}
								}
							}
						}
					}
				}
				JOINT rPectoral
				{
					OFFSET -6.358840 6.360771 6.369920
					CHANNELS 3 Zrotation Xrotation Yrotation
					End Site
					{
						OFFSET 10.295957 -17.050110 17.461308
					}
				}
				JOINT lPectoral
				{
					OFFSET 6.358840 6.360771 6.369920
					CHANNELS 3 Zrotation Xrotation Yrotation
					End Site
					{
						OFFSET 10.295957 -17.050110 17.461308
					}
				}
			}
		}
	}
}
MOTION
Frames:	4
Frame Time:	0.0333333
34.042892 0.289602 -0.941343 2.495763 3.726448 -0.992205 0.000000 0.000000 0.000000 -3.395928 -1.188097 -7.924669 -3.968742 -3.249248 -12.696919 10.258599 -15.226998 15.003652 4.831326 -6.092168 1.808515 0.000000 0.000000 0.000000 -11.564302 -9.181705 0.374651 2.706181 13.543124 16.964069 0.035049 -24.429350 7.730218 -4.365982 -8.218033 -1.705374 0.000000 0.000000 0.000000 -2.926370 -11.020947 2.214633 0.000000 0.000000 0.000000 2.143274 14.651985 0.649219 -3.196899 -22.745073 -1.878309 1.759516 20.628687 -3.531378 0.000000 0.000000 0.000000 0.000000 0.000000 0.000000 0.000000 0.000000 0.000000 0.000000 0.000000 0.000000 0.000000 0.000000 0.000000 0.001790 18.987013 -0.000299 0.000000 16.984755 0.000000 0.000000 5.997176 0.000000 -0.003221 -13.991714 -0.001883 0.000000 0.000000 0.000000 0.000000 0.000000 0.000000 14.356405 -0.497291 -5.843671 53.184029 29.367456 2.641116 3.762174 -21.418434 -13.910480 8.354619 3.874137 -3.687268 -13.831341 20.748081 -10.323249 -9.134913 -12.191142 -4.218433 -18.015001 23.653189 11.166509 0.000000 0.000000 0.000000 -12.040880 -7.767782 -18.717670 -6.527260 -5.336768 -0.136586 -6.955931 -5.314076 -1.219352 -9.793245 -3.763000 -7.601051 -1.794042 2.609477 -3.972181 3.400980 6.176899 -1.447602 0.000000 0.000000 0.000000 -7.054855 -7.882446 -1.028130 13.248023 9.801343 -6.803689 11.254801 10.733729 -0.437209 -22.769821 -25.872719 -13.814939 34.748352 19.096632 -8.097984 35.806015 20.038673 2.543487 -18.775875 0.406099 1.882744 -39.514698 40.612129 -12.303971 -8.587104 -15.449656 7.618595 -6.456410 4.961088 -8.404798 -3.991397 11.125135 15.823930 5.162346 -14.319053 -10.681259 14.779143 14.522295 -14.058175 0.000000 0.000000 0.000000 9.524059 -6.338980 16.525900 6.240473 -3.587857 1.677345 9.730876 -7.359098 1.841008 7.732187 -2.917554 7.037664 1.410329 2.553376 3.833736 0.596234 3.866997 2.344698 0.000000 0.000000 0.000000 3.428065 -7.569414 -0.487546 -9.535311 7.414174 6.691101 -0.107290 7.434124 4.466264 16.560461 -24.862946 11.105850 -30.308216 17.000666 7.257519 -23.973875 21.542013 1.411208 0.205737 -0.010577 -0.604164 -0.089650 -0.004341 0.263228 
33.925220 0.370364 -0.733260 2.103759 3.740026 -0.676217 0.000000 0.000000 0.000000 -2.940772 -1.084861 -7.909697 -3.918362 -3.273230 -12.185975 9.661923 -15.192624 14.451456 4.814644 -6.319426 1.795121 0.000000 0.000000 0.000000 -10.335244 -8.393883 -0.644992 2.612581 12.255589 13.118880 -0.407657 -23.435385 7.800197 -4.394508 -8.367643 -1.712667 0.000000 0.000000 0.000000 -2.755841 -11.649713 2.105790 0.000000 0.000000 0.000000 2.345984 15.165556 0.518874 -3.337039 -23.130167 -1.696401 1.961247 21.393976 -3.420555 0.000000 0.000000 0.000000 0.000000 0.000000 0.000000 0.000000 0.000000 0.000000 0.000000 0.000000 0.000000 0.000000 0.000000 0.000000 0.001790 18.987013 -0.000299 0.000000 16.984755 0.000000 0.000000 5.997176 0.000000 -0.003221 -13.991714 -0.001883 0.000000 0.000000 0.000000 0.000000 0.000000 0.000000 14.519616 -0.455230 -5.629085 54.079292 28.817801 3.168528 3.026411 -22.137987 -15.659040 7.037309 3.032957 -4.586222 -14.650361 21.204462 -9.794075 -9.543960 -11.907557 -5.849980 -18.472801 24.072453 10.329178 0.000000 0.000000 0.000000 -11.813224 -8.185669 -18.302660 -6.948328 -5.727124 -0.187726 -7.336175 -5.669148 -1.262587 -9.719234 -3.727723 -7.593877 -1.725848 2.654331 -3.968433 3.465051 6.227011 -1.443312 0.000000 0.000000 0.000000 -6.519432 -7.468717 -1.076140 14.126676 10.177147 -6.839075 11.448238 10.831093 -0.441133 -22.127377 -25.326763 -14.232364 38.941025 20.414520 -8.754194 37.512535 20.977209 2.447325 -18.871500 0.386212 1.974669 -41.788624 39.466717 -10.823122 -8.370488 -16.657463 7.731276 -6.438518 4.563694 -7.345031 7.667314 12.105975 13.667964 5.162346 -14.319053 -10.681259 15.620009 17.749895 -15.162234 0.000000 0.000000 0.000000 9.948789 -7.491537 16.797930 6.656787 -3.904207 1.711258 10.727752 -8.263140 2.002510 8.208158 -3.120546 7.108761 0.989155 2.816697 3.828252 0.037826 4.245646 2.254620 0.000000 0.000000 0.000000 3.643954 -7.350509 -0.515963 -11.889724 8.209085 6.851072 -0.714617 7.915203 4.198078 17.356663 -24.739805 11.941364 -36.473980 18.810461 8.225219 -27.487858 23.342243 1.430323 0.199173 -0.010205 -0.584884 -0.092956 -0.004509 0.272937 
33.807529 0.451142 -0.525176 1.783708 3.484258 -0.426822 0.000000 0.000000 0.000000 -2.613101 -0.676881 -7.602108 -3.831313 -3.273810 -12.355102 9.223206 -15.100131 14.232799 4.767425 -6.570217 1.794516 0.000000 0.000000 0.000000 -9.313526 -7.409851 -1.246803 2.255348 11.136355 10.818810 -0.952933 -22.522131 7.919848 -4.398681 -8.386688 -1.715556 0.000000 0.000000 0.000000 -2.418988 -11.744977 2.117235 0.000000 0.000000 0.000000 2.084132 15.012465 0.612631 -3.132859 -22.462519 -1.704967 2.037053 21.514196 -3.426480 0.000000 0.000000 0.000000 0.000000 0.000000 0.000000 0.000000 0.000000 0.000000 0.000000 0.000000 0.000000 0.000000 0.000000 0.000000 0.001790 18.987013 -0.000299 0.000000 16.984755 0.000000 0.000000 5.997176 0.000000 -0.003221 -13.991714 -0.001883 0.000000 0.000000 0.000000 0.000000 0.000000 0.000000 15.018639 -0.458429 -5.597746 54.841423 27.970268 3.332223 2.409869 -23.500895 -16.795164 7.059448 2.990538 -5.377587 -14.932836 21.528238 -8.029069 -9.803937 -11.718128 -6.902987 -18.766321 24.353838 9.789106 0.000000 0.000000 0.000000 -11.585998 -8.588227 -17.897572 -7.354884 -6.108652 -0.241052 -7.582327 -5.898411 -1.291975 -9.671404 -3.705109 -7.589242 -1.681819 2.683353 -3.966052 3.506541 6.259408 -1.440552 0.000000 0.000000 0.000000 -5.999302 -7.066391 -1.123879 14.696192 10.417393 -6.862854 11.573196 10.894073 -0.444251 -21.497816 -24.793417 -14.634082 43.070648 21.629879 -9.510079 39.182079 21.883120 2.326078 -18.965446 0.367319 2.060144 -42.712639 40.250942 -10.331299 -8.294792 -18.221964 7.909124 -6.902265 4.687511 -7.384689 17.805729 15.612283 8.877138 5.162346 -14.319053 -10.681259 16.180937 19.894300 -15.987454 0.000000 0.000000 0.000000 10.238144 -8.269916 16.980864 7.062675 -4.212174 1.747242 11.704424 -9.140824 2.176430 8.529431 -3.257310 7.157791 0.704875 2.994597 3.825684 -0.338962 4.501459 2.196229 0.000000 0.000000 0.000000 3.854260 -7.137110 -0.543827 -14.190881 8.978342 7.045047 -1.124285 8.240006 4.018445 18.130945 -24.616770 12.755321 -42.582321 20.463022 9.392707 -30.963305 25.095982 1.579269 0.199466 -0.010222 -0.585744 -0.096050 -0.004667 0.282023 
33.686260 0.534372 -0.310756 1.777810 3.484893 -0.105681 0.000000 0.000000 0.000000 -2.499403 -0.497055 -6.536607 -3.860809 -3.245487 -13.697442 9.276466 -15.185734 14.302729 4.688209 -6.721729 1.809073 0.000000 0.000000 0.000000 -8.595210 -6.977119 -1.867097 1.324110 10.621157 10.057488 -0.884008 -22.607058 7.878382 -4.402906 -8.406315 -1.718396 0.000000 0.000000 0.000000 -2.895233 -12.089732 2.091682 0.000000 0.000000 0.000000 2.218979 15.016313 0.594628 -2.869181 -22.287983 -1.783826 1.968515 21.799431 -3.442407 0.000000 0.000000 0.000000 0.000000 0.000000 0.000000 0.000000 0.000000 0.000000 0.000000 0.000000 0.000000 0.000000 0.000000 0.000000 0.001790 18.987013 -0.000299 0.000000 16.984755 0.000000 0.000000 5.997176 0.000000 -0.003221 -13.991714 -0.001883 0.000000 0.000000 0.000000 0.000000 0.000000 0.000000 15.421249 -0.445847 -5.506415 55.794239 27.287292 3.680231 2.214207 -25.892872 -17.315289 6.312909 2.450199 -6.859079 -15.319602 21.766243 -8.847082 -9.895369 -11.649811 -7.276214 -18.766321 24.353838 9.789106 0.000000 0.000000 0.000000 -11.363761 -8.971071 -17.507387 -7.742145 -6.476085 -0.295239 -7.670965 -5.978667 -1.303600 -9.671404 -3.705109 -7.589242 -1.681819 2.683353 -3.966052 3.506541 6.259408 -1.440552 0.000000 0.000000 0.000000 -5.501246 -6.680679 -1.170341 14.898628 10.502627 -6.871749 11.617737 10.916383 -0.445539 -20.890715 -24.280413 -15.016453 47.080288 22.723938 -10.346231 40.793686 22.744396 2.182699 -19.203371 0.387021 1.997602 -43.062767 40.397289 -10.363130 -8.708328 -18.881638 8.349070 -7.836001 5.102693 -6.748950 20.278130 15.997495 11.245280 5.162346 -14.319053 -10.681259 16.386475 20.674137 -16.306648 0.000000 0.000000 0.000000 10.344753 -8.555446 17.047911 7.447638 -4.503463 1.783500 12.634957 -9.968493 2.356183 8.647410 -3.307333 7.176097 0.600562 3.059836 3.824996 -0.477300 4.595424 2.175196 0.000000 0.000000 0.000000 4.053410 -6.935121 -0.570653 -16.377953 9.700351 7.263905 -1.274504 8.359025 3.952809 18.864634 -24.497265 13.525527 -48.465290 21.906412 10.696284 -34.311050 26.749809 1.842423 0.197584 -0.010116 -0.580215 -0.094807 -0.004604 0.278373 
